<svg width="285" height="275" viewBox="0 0 285 275" fill="none" xmlns="http://www.w3.org/2000/svg">
<path d="M0.499512 83.7677L10.8371 84.5335C21.5576 72.4092 25.7692 36.5468 88.9435 43.5661C86.6463 197.226 19.2604 213.434 23.472 244.957C25.0035 262.824 39.1698 273.8 54.4848 274.438C102.855 272.779 100.685 207.563 115.745 43.1832H178.153C174.835 101.125 165.774 159.066 164.753 215.859C165.518 253.635 188.491 273.8 218.738 274.055C268.512 275.714 284.21 217.645 284.21 192.886H273.489C272.468 213.306 262.641 227.983 241.71 228.876C184.662 229.642 216.058 128.564 216.441 43.949L284.21 44.3319L283.827 1.06728C2.15341 -0.297135 37.9058 -5.8192 0.499512 83.7677Z" fill="#3B82F6"/>
</svg>
